<?xml version="1.0" standalone="no"?>
<!DOCTYPE svg PUBLIC "-//W3C//DTD SVG 20010904//EN"
 "http://www.w3.org/TR/2001/REC-SVG-20010904/DTD/svg10.dtd">
<svg version="1.0" xmlns="http://www.w3.org/2000/svg"
 width="980.000000pt" height="980.000000pt" viewBox="0 0 980.000000 980.000000"
 preserveAspectRatio="xMidYMid meet">

<g transform="translate(0.000000,980.000000) scale(0.100000,-0.100000)"
fill="#292929" stroke="none">
<path d="M6520 8500 c-531 -58 -995 -313 -1311 -720 -36 -47 -79 -104 -94
-127 l-28 -43 -1471 0 c-958 0 -1494 -4 -1536 -10 -395 -63 -718 -358 -827
-755 l-28 -100 0 -2290 0 -2290 23 -90 c27 -110 112 -287 180 -376 145 -191
372 -334 612 -386 81 -17 193 -18 2335 -18 1882 0 2261 2 2320 14 405 80 703
358 813 759 l27 97 3 1388 c1 763 6 1387 11 1387 4 0 50 25 102 56 324 195
564 454 732 789 282 562 257 1257 -65 1794 -293 490 -773 815 -1338 906 -121
19 -350 27 -460 15z m295 -349 c510 -43 948 -320 1209 -764 300 -512 268
-1168 -81 -1661 -32 -44 -107 -130 -168 -191 -466 -467 -1170 -582 -1762 -287
-430 214 -722 595 -825 1076 -18 84 -22 134 -22 296 0 216 16 319 76 495 195
570 719 984 1313 1034 130 12 139 12 260 2z m-1921 -968 c-77 -249 -102 -543
-69 -795 73 -554 362 -1023 820 -1330 245 -165 484 -257 790 -304 200 -30 565
-10 738 42 16 5 17 -60 17 -1266 0 -1114 -2 -1280 -16 -1347 -58 -282 -288
-495 -576 -533 -58 -8 -743 -10 -2273 -8 -2065 3 -2193 4 -2249 21 -199 59
-350 185 -437 363 -74 152 -69 -26 -69 2430 0 2175 0 2212 20 2290 32 129 83
217 180 314 96 97 183 149 302 180 70 18 128 19 1460 19 l1386 1 -24 -77z"/>
<path d="M6637 7686 c-45 -17 -73 -40 -96 -81 -14 -26 -17 -83 -21 -420 l-5
-390 -397 -5 c-450 -6 -430 -2 -476 -91 -30 -56 -26 -122 11 -177 47 -72 47
-72 481 -72 l386 0 0 -382 c0 -443 1 -444 84 -493 40 -23 55 -27 105 -23 70 5
111 32 140 91 20 42 21 59 21 425 l0 382 386 0 c433 0 434 0 481 71 54 82 34
192 -45 244 l-39 26 -389 2 -389 2 -5 390 c-5 418 -6 421 -58 468 -23 21 -87
46 -117 46 -11 0 -37 -6 -58 -13z"/>
<path d="M2905 6449 c-225 -34 -423 -175 -521 -372 -66 -130 -89 -256 -73
-399 49 -438 498 -721 915 -578 252 87 432 311 466 582 35 284 -121 569 -385
701 -118 59 -278 85 -402 66z m250 -381 c144 -74 220 -242 180 -393 -32 -121
-117 -209 -236 -246 -74 -23 -119 -24 -189 -3 -105 31 -175 92 -224 194 -60
127 -34 274 67 378 76 79 139 102 262 99 74 -3 99 -8 140 -29z"/>
<path d="M3623 4779 c-46 -23 -47 -24 -218 -294 -59 -93 -117 -186 -130 -205
-12 -19 -94 -147 -180 -285 -87 -137 -187 -295 -222 -350 -36 -55 -131 -206
-213 -335 -82 -129 -215 -340 -297 -469 -239 -377 -223 -347 -223 -412 0 -69
22 -112 77 -149 l37 -25 2100 -3 c1511 -2 2112 0 2141 8 76 21 125 84 125 162
0 71 -473 1722 -506 1766 -35 45 -79 65 -141 64 -69 -1 -96 -18 -180 -116 -39
-44 -177 -204 -306 -354 l-236 -272 -203 176 c-375 327 -862 750 -1051 915
-103 90 -205 172 -225 181 -50 23 -98 22 -149 -3z m312 -589 c98 -85 269 -234
379 -329 111 -96 271 -236 356 -310 85 -75 202 -176 259 -226 57 -49 134 -116
170 -149 76 -67 114 -86 170 -86 84 0 83 0 441 415 25 29 76 89 114 134 38 45
71 79 73 77 2 -2 75 -253 162 -557 l159 -554 -900 -3 c-495 -1 -1302 -1 -1794
0 l-895 3 56 90 c31 50 67 106 80 125 12 19 82 130 155 245 73 116 152 239
175 275 23 36 66 103 95 150 29 47 72 114 95 150 23 36 133 210 245 388 112
177 209 321 216 320 6 -2 91 -73 189 -158z"/>
</g>
</svg>
